<svg width="450" height="450" viewBox="0 0 450 450" fill="none" xmlns="http://www.w3.org/2000/svg">
<g clip-path="url(#clip0_3101_2)">
<rect width="450" height="450" rx="33" fill="#2B2A33"/>
<path d="M154.598 385V340.07H109V289.649H159.609V335.078H290.89V249.212H154.598V204.281H109V109.429H154.598V64H295.901V109.429H342V159.351H290.89V114.421H159.609V199.788H295.901V244.219H342V340.07H295.901V385H154.598Z" fill="#FF2F00"/>
<path d="M315 224V188.802H320.797V183H338.762V188.802H344.622V195.179H338.125V189.44H321.434V200.344H333.028V206.656H321.434V224H315Z" fill="white"/>
<path d="M347.847 224V194.541H365.875V200.344H370.972V194.541H383.267V200.344H389V224H382.63V200.918H371.609V224H365.238V200.918H354.281V224H347.847Z" fill="white"/>
</g>
<defs>
<clipPath id="clip0_3101_2">
<rect width="450" height="450" fill="white"/>
</clipPath>
</defs>
</svg>
