<svg width="450" height="450" fill="none" xmlns="http://www.w3.org/2000/svg"><g clip-path="url(#a)"><rect width="450" height="450" rx="33" fill="#2B2A33"/><path d="M154.598 385v-44.93H109v-50.421h50.609v45.429H290.89v-85.866H154.598v-44.931H109v-94.852h45.598V64h141.303v45.429H342v49.922h-51.11v-44.93H159.609v85.367h136.292v44.431H342v95.851h-46.099V385H154.598Z" fill="#FF2F00"/><path d="M315 224v-35.198h5.797V183h17.965v5.802h5.86v6.377h-6.497v-5.739h-16.691v10.904h11.594v6.312h-11.594V224H315ZM347.847 224v-29.459h18.028v5.803h5.097v-5.803h12.295v5.803H389V224h-6.37v-23.082h-11.021V224h-6.371v-23.082h-10.957V224h-6.434Z" fill="#fff"/></g><defs><clipPath id="a"><path fill="#fff" d="M0 0h450v450H0z"/></clipPath></defs></svg>